<?xml version="1.0" standalone="no"?>
<!DOCTYPE svg PUBLIC "-//W3C//DTD SVG 20010904//EN"
 "http://www.w3.org/TR/2001/REC-SVG-20010904/DTD/svg10.dtd">
<svg version="1.0" xmlns="http://www.w3.org/2000/svg"
 width="540.000000pt" height="540.000000pt" viewBox="0 0 540.000000 540.000000"
 preserveAspectRatio="xMidYMid meet">
<g transform="translate(0.000000,540.000000) scale(0.100000,-0.100000)"
fill="#000000" stroke="none">
<path d="M0 2700 l0 -2700 2700 0 2700 0 0 2700 0 2700 -2700 0 -2700 0 0
-2700z m1400 1800 l0 -500 -500 0 -500 0 0 500 0 500 500 0 500 0 0 -500z
m3600 0 l0 -500 -500 0 -500 0 0 500 0 500 500 0 500 0 0 -500z m-1760 -630
l0 -630 630 0 630 0 0 -540 0 -540 -630 0 -630 0 0 -630 0 -630 -540 0 -540 0
0 630 0 630 -630 0 -630 0 0 540 0 540 630 0 630 0 0 630 0 630 540 0 540 0 0
-630z m-1840 -2970 l0 -500 -500 0 -500 0 0 500 0 500 500 0 500 0 0 -500z"/>
<path d="M600 4500 l0 -300 300 0 300 0 0 300 0 300 -300 0 -300 0 0 -300z"/>
<path d="M4200 4500 l0 -300 300 0 300 0 0 300 0 300 -300 0 -300 0 0 -300z"/>
<path d="M600 900 l0 -300 300 0 300 0 0 300 0 300 -300 0 -300 0 0 -300z"/>
</g>
</svg>
