<?xml version="1.0" standalone="no"?>
<!DOCTYPE svg PUBLIC "-//W3C//DTD SVG 20010904//EN" "http://www.w3.org/TR/2001/REC-SVG-20010904/DTD/svg10.dtd">
<svg version="1.0" xmlns="http://www.w3.org/2000/svg"
 width="270pt" height="270pt" viewBox="0 0 270 270" preserveAspectRatio="xMidYMid meet">
<g fill="#000000" stroke="none">
<path d="M108,108 L45,108 L45,162 L108,162 L108,225 L162,225 L162,162 L225,162 L225,108 L162,108 L162,45
L108,45 L108,108 Z M0,0 L270,0 L270,270 L0,270 L0,0 Z M20,20 L20,70 L70,70 L70,20 L20,20 Z M200,20
L200,70 L250,70 L250,20 L200,20 Z M20,200 L20,250 L70,250 L70,200 L20,200 Z M30,30 L60,30 L60,60 L30,60
L30,30 Z M210,30 L240,30 L240,60 L210,60 L210,30 Z M30,210 L60,210 L60,240 L30,240 L30,210 Z"></path>
</g>
</svg>
