<?xml version="1.0" encoding="UTF-8" standalone="no"?>
<!DOCTYPE svg PUBLIC "-//W3C//DTD SVG 1.1//EN" "http://www.w3.org/Graphics/SVG/1.1/DTD/svg11.dtd">
<svg width="40" height="40" version="1.1" viewBox="0 0 40 40" xmlns="http://www.w3.org/2000/svg">
<g transform="scale(1.379) translate(4 4)">
<path d="M0,0h7v1h-7zm10,0h2v1h-2zm4,0h7v1h-7zm-14,1h1v6h-1zm6,0h1v6h-1zm2,0h1v1h-1z
m4,0h1v2h-1zm2,0h1v6h-1zm6,0h1v6h-1zm-18,1h3v3h-3zm8,0h2v2h-2zm6,0h3v3h-3z
m-7,2h1v1h-1zm3,0h1v3h-1zm-4,1h1v3h-1zm-7,1h5v1h-5zm9,0h1v2h-1zm5,0h5v1h-5z
m-6,1h1v1h-1zm2,0h1v1h-1zm-7,1h4v1h-4zm10,0h2v1h-2zm5,0h1v2h-1zm-18,1h3v1h-3z
m6,0h2v1h-2zm5,0h1v2h-1zm3,0h1v2h-1zm2,0h1v2h-1zm3,0h1v1h-1zm-18,1h1v1h-1z
m3,0h2v1h-2zm4,0h1v3h-1zm2,0h1v1h-1zm3,0h1v1h-1zm2,0h1v2h-1zm2,0h1v4h-1z
m-18,1h1v1h-1zm3,0h3v1h-3zm4,0h1v2h-1zm3,0h1v2h-1zm3,0h1v1h-1zm-12,1h1v1h-1z
m2,0h1v1h-1zm3,0h1v1h-1zm6,0h1v3h-1zm8,0h1v3h-1zm-12,1h1v4h-1zm3,0h1v1h-1z
m-11,1h7v1h-7zm9,0h1v1h-1zm5,0h1v2h-1zm-14,1h1v6h-1zm6,0h1v6h-1zm5,0h1v1h-1z
m4,0h1v4h-1zm2,0h1v4h-1zm-15,1h3v3h-3zm7,0h1v1h-1zm7,0h1v1h-1zm2,0h3v1h-3z
m-8,1h3v1h-3zm9,0h2v1h-2zm-10,1h1v3h-1zm1,0h1v1h-1zm6,0h1v2h-1zm2,0h1v3h-1z
m-7,1h2v1h-2zm9,0h1v2h-1zm-19,1h5v1h-5zm9,0h1v1h-1zm2,0h3v1h-3zm7,0h1v1h-1z" fill="#000000"/>
</g>
</svg>
